<svg width="17" height="18" viewBox="0 0 17 18" fill="none" xmlns="http://www.w3.org/2000/svg">
<g id="Chat">
<path id="Chat_2" fill-rule="evenodd" clip-rule="evenodd" d="M0.166626 9.01236C0.166626 4.62244 3.67496 0.666504 8.51663 0.666504C13.25 0.666504 16.8333 4.54733 16.8333 8.98732C16.8333 14.1367 12.6333 17.3332 8.49996 17.3332C7.13329 17.3332 5.61663 16.966 4.39996 16.2482C3.97496 15.9895 3.61663 15.7975 3.15829 15.9478L1.47496 16.4485C1.04996 16.582 0.666626 16.2482 0.791626 15.7975L1.34996 13.9281C1.44163 13.6693 1.42496 13.3939 1.29163 13.1769C0.574959 11.8583 0.166626 10.4145 0.166626 9.01236ZM7.41663 9.01236C7.41663 9.60491 7.89163 10.0806 8.48329 10.089C9.07496 10.089 9.54996 9.60491 9.54996 9.0207C9.54996 8.42815 9.07496 7.95243 8.48329 7.95243C7.89996 7.94409 7.41663 8.42815 7.41663 9.01236ZM11.2583 9.0207C11.2583 9.60491 11.7333 10.089 12.325 10.089C12.9166 10.089 13.3916 9.60491 13.3916 9.0207C13.3916 8.42815 12.9166 7.95243 12.325 7.95243C11.7333 7.95243 11.2583 8.42815 11.2583 9.0207ZM4.64163 10.089C4.05829 10.089 3.57496 9.60491 3.57496 9.0207C3.57496 8.42815 4.04996 7.95243 4.64163 7.95243C5.23329 7.95243 5.70829 8.42815 5.70829 9.0207C5.70829 9.60491 5.23329 10.0806 4.64163 10.089Z" fill="#FFD600"/>
</g>
</svg>
