<svg width="10" height="10" viewBox="0 0 10 10" fill="none" xmlns="http://www.w3.org/2000/svg">
<g id="Star">
<path id="Star_2" d="M7.95932 6.16C7.82982 6.2855 7.77032 6.467 7.79982 6.645L8.24432 9.105C8.28182 9.3135 8.19382 9.5245 8.01932 9.645C7.84832 9.77 7.62082 9.785 7.43432 9.685L5.21982 8.53C5.14282 8.489 5.05732 8.467 4.96982 8.4645H4.83432C4.78732 8.4715 4.74132 8.4865 4.69932 8.5095L2.48432 9.67C2.37482 9.725 2.25082 9.7445 2.12932 9.725C1.83332 9.669 1.63582 9.387 1.68432 9.0895L2.12932 6.6295C2.15882 6.45 2.09932 6.2675 1.96982 6.14L0.164316 4.39C0.0133158 4.2435 -0.0391842 4.0235 0.0298158 3.825C0.0968158 3.627 0.267816 3.4825 0.474316 3.45L2.95932 3.0895C3.14832 3.07 3.31432 2.955 3.39932 2.785L4.49432 0.54C4.52032 0.49 4.55382 0.444 4.59432 0.405L4.63932 0.37C4.66282 0.344 4.68982 0.3225 4.71982 0.305L4.77432 0.285L4.85932 0.25H5.06982C5.25782 0.2695 5.42332 0.382 5.50982 0.55L6.61932 2.785C6.69932 2.9485 6.85482 3.062 7.03432 3.0895L9.51932 3.45C9.72932 3.48 9.90482 3.625 9.97432 3.825C10.0398 4.0255 9.98332 4.2455 9.82932 4.39L7.95932 6.16Z" fill="#F98600"/>
</g>
</svg>
