<svg width="10" height="10" viewBox="0 0 10 10" fill="none" xmlns="http://www.w3.org/2000/svg">
<g id="Star">
<path id="Star_2" d="M7.95919 6.16C7.82969 6.2855 7.77019 6.467 7.79969 6.645L8.24419 9.105C8.28169 9.3135 8.19369 9.5245 8.01919 9.645C7.84819 9.77 7.62069 9.785 7.43419 9.685L5.21969 8.53C5.14269 8.489 5.05719 8.467 4.96969 8.4645H4.83419C4.78719 8.4715 4.74119 8.4865 4.69919 8.5095L2.48419 9.67C2.37469 9.725 2.25069 9.7445 2.12919 9.725C1.83319 9.669 1.63569 9.387 1.68419 9.0895L2.12919 6.6295C2.15869 6.45 2.09919 6.2675 1.96969 6.14L0.164194 4.39C0.0131938 4.2435 -0.0393062 4.0235 0.0296938 3.825C0.0966938 3.627 0.267694 3.4825 0.474194 3.45L2.95919 3.0895C3.14819 3.07 3.31419 2.955 3.39919 2.785L4.49419 0.54C4.52019 0.49 4.55369 0.444 4.59419 0.405L4.63919 0.37C4.66269 0.344 4.68969 0.3225 4.71969 0.305L4.77419 0.285L4.85919 0.25H5.06969C5.25769 0.2695 5.42319 0.382 5.50969 0.55L6.61919 2.785C6.69919 2.9485 6.85469 3.062 7.03419 3.0895L9.51919 3.45C9.72919 3.48 9.90469 3.625 9.97419 3.825C10.0397 4.0255 9.98319 4.2455 9.82919 4.39L7.95919 6.16Z" fill="#D1D5DB"/>
</g>
</svg>
