<svg width="30" height="30" viewBox="0 0 30 30" fill="none" xmlns="http://www.w3.org/2000/svg">
<g id="carbon:share">
<path id="Vector" d="M22.711 18.9045C22.0093 18.908 21.3173 19.0691 20.6861 19.3757C20.0549 19.6824 19.5006 20.1269 19.0641 20.6764L12.211 16.392C12.4608 15.5859 12.4608 14.7231 12.211 13.917L19.0641 9.63261C19.7597 10.4939 20.7377 11.0812 21.8248 11.2905C22.912 11.4998 24.0381 11.3175 25.0037 10.776C25.9693 10.2345 26.7121 9.3687 27.1005 8.33197C27.4889 7.29524 27.4978 6.1545 27.1257 5.11183C26.7535 4.06916 26.0243 3.19186 25.0673 2.63533C24.1103 2.0788 22.9871 1.87897 21.8968 2.07124C20.8066 2.26351 19.8195 2.83546 19.1106 3.68579C18.4017 4.53611 18.0166 5.60992 18.0235 6.71699C18.0279 7.13622 18.0911 7.55276 18.211 7.95449L11.3579 12.2389C10.7529 11.4772 9.9259 10.9227 8.9916 10.652C8.0573 10.3814 7.06195 10.4082 6.14353 10.7286C5.22511 11.049 4.4291 11.6471 3.86585 12.4401C3.3026 13.2332 3 14.1818 3 15.1545C3 16.1272 3.3026 17.0758 3.86585 17.8688C4.4291 18.6619 5.22511 19.26 6.14353 19.5804C7.06195 19.9008 8.0573 19.9275 8.9916 19.6569C9.9259 19.3863 10.7529 18.8318 11.3579 18.0701L18.211 22.3545C18.0911 22.7562 18.0279 23.1728 18.0235 23.592C18.0235 24.5191 18.2984 25.4254 18.8135 26.1962C19.3286 26.9671 20.0607 27.5679 20.9172 27.9227C21.7737 28.2775 22.7162 28.3703 23.6255 28.1894C24.5348 28.0086 25.37 27.5621 26.0256 26.9066C26.6811 26.251 27.1276 25.4158 27.3084 24.5065C27.4893 23.5972 27.3965 22.6547 27.0417 21.7982C26.6869 20.9416 26.0861 20.2095 25.3153 19.6945C24.5444 19.1794 23.6381 18.9045 22.711 18.9045ZM22.711 3.90449C23.2673 3.90449 23.811 4.06944 24.2736 4.37848C24.7361 4.68752 25.0966 5.12677 25.3094 5.64069C25.5223 6.15461 25.578 6.72011 25.4695 7.26568C25.361 7.81125 25.0931 8.31239 24.6998 8.70573C24.3064 9.09906 23.8053 9.36693 23.2597 9.47545C22.7141 9.58397 22.1486 9.52827 21.6347 9.3154C21.1208 9.10253 20.6816 8.74204 20.3725 8.27953C20.0635 7.81702 19.8985 7.27325 19.8985 6.71699C19.8985 5.97107 20.1948 5.2557 20.7223 4.72825C21.2497 4.2008 21.9651 3.90449 22.711 3.90449ZM7.71102 17.967C7.15476 17.967 6.61099 17.802 6.14848 17.493C5.68596 17.184 5.32548 16.7447 5.11261 16.2308C4.89974 15.7169 4.84404 15.1514 4.95256 14.6058C5.06108 14.0602 5.32895 13.5591 5.72228 13.1658C6.11562 12.7724 6.61676 12.5045 7.16233 12.396C7.7079 12.2875 8.2734 12.3432 8.78732 12.5561C9.30123 12.7689 9.74049 13.1294 10.0495 13.5919C10.3586 14.0545 10.5235 14.5982 10.5235 15.1545C10.5235 15.9004 10.2272 16.6158 9.69976 17.1432C9.17231 17.6707 8.45694 17.967 7.71102 17.967ZM22.711 26.4045C22.1548 26.4045 21.611 26.2395 21.1485 25.9305C20.686 25.6215 20.3255 25.1822 20.1126 24.6683C19.8997 24.1544 19.844 23.5889 19.9526 23.0433C20.0611 22.4977 20.3289 21.9966 20.7223 21.6033C21.1156 21.2099 21.6168 20.9421 22.1623 20.8335C22.7079 20.725 23.2734 20.7807 23.7873 20.9936C24.3012 21.2064 24.7405 21.5669 25.0495 22.0294C25.3586 22.492 25.5235 23.0357 25.5235 23.592C25.5235 24.3379 25.2272 25.0533 24.6998 25.5807C24.1723 26.1082 23.4569 26.4045 22.711 26.4045Z" fill="black"/>
</g>
</svg>
