<svg width="30" height="30" viewBox="0 0 30 30" fill="none" xmlns="http://www.w3.org/2000/svg">
<g id="fluent:comment-note-24-regular" clip-path="url(#clip0_360_3270)">
<path id="Vector" d="M12.5 6.5C12.5 5.83696 12.7634 5.20107 13.2322 4.73223C13.7011 4.26339 14.337 4 15 4H23.75C24.413 4 25.0489 4.26339 25.5178 4.73223C25.9866 5.20107 26.25 5.83696 26.25 6.5V14C26.25 14.663 25.9866 15.2989 25.5178 15.7678C25.0489 16.2366 24.413 16.5 23.75 16.5H15C14.337 16.5 13.7011 16.2366 13.2322 15.7678C12.7634 15.2989 12.5 14.663 12.5 14V6.5ZM15.625 7.75C15.4592 7.75 15.3003 7.81585 15.1831 7.93306C15.0658 8.05027 15 8.20924 15 8.375C15 8.54076 15.0658 8.69973 15.1831 8.81694C15.3003 8.93415 15.4592 9 15.625 9H23.125C23.2908 9 23.4497 8.93415 23.5669 8.81694C23.6842 8.69973 23.75 8.54076 23.75 8.375C23.75 8.20924 23.6842 8.05027 23.5669 7.93306C23.4497 7.81585 23.2908 7.75 23.125 7.75H15.625ZM15.625 11.5C15.4592 11.5 15.3003 11.5658 15.1831 11.6831C15.0658 11.8003 15 11.9592 15 12.125C15 12.2908 15.0658 12.4497 15.1831 12.5669C15.3003 12.6842 15.4592 12.75 15.625 12.75H23.125C23.2908 12.75 23.4497 12.6842 23.5669 12.5669C23.6842 12.4497 23.75 12.2908 23.75 12.125C23.75 11.9592 23.6842 11.8003 23.5669 11.6831C23.4497 11.5658 23.2908 11.5 23.125 11.5H15.625Z" fill="black"/>
<path id="Vector_2" d="M4.0625 6.5H11.25V8.375H4.0625C3.48234 8.375 2.92594 8.60547 2.5157 9.0157C2.10547 9.42594 1.875 9.98234 1.875 10.5625V21.1875C1.875 22.395 2.855 23.375 4.0625 23.375H6.87375V28.0625L13.1425 23.375H20.9375C21.5177 23.375 22.0741 23.1445 22.4843 22.7343C22.8945 22.3241 23.125 21.7677 23.125 21.1875V17.75H23.75C24.1875 17.75 24.6087 17.675 25 17.5375V21.1875C25 21.721 24.8949 22.2493 24.6908 22.7422C24.4866 23.235 24.1874 23.6829 23.8101 24.0601C23.4329 24.4374 22.985 24.7366 22.4922 24.9408C21.9993 25.1449 21.471 25.25 20.9375 25.25H13.765L7.5 29.9375C7.26786 30.1112 6.99194 30.217 6.70314 30.2428C6.41433 30.2687 6.12402 30.2137 5.8647 30.084C5.60537 29.9542 5.38726 29.7549 5.23477 29.5083C5.08228 29.2617 5.00142 28.9775 5.00125 28.6875V25.25H4.06375C3.53015 25.2502 3.00174 25.1452 2.50871 24.9411C2.01569 24.737 1.56769 24.4378 1.19032 24.0606C0.81295 23.6833 0.513597 23.2354 0.309359 22.7424C0.105121 22.2495 -2.52592e-08 21.7211 0 21.1875V10.5625C0 9.48506 0.428012 8.45175 1.18988 7.68988C1.95175 6.92801 2.98506 6.5 4.0625 6.5Z" fill="black"/>
</g>
<defs>
<clipPath id="clip0_360_3270">
<rect width="30" height="30" fill="white"/>
</clipPath>
</defs>
</svg>
