<svg width="30" height="30" viewBox="0 0 30 30" fill="none" xmlns="http://www.w3.org/2000/svg">
<path id="Vector" d="M21.8182 0C18.9545 0 16.4645 1.51097 15 4.04309C13.5355 1.51097 11.0455 0 8.18182 0C6.01264 0.00295591 3.93303 1.01251 2.39919 2.80719C0.865348 4.60188 0.00252629 7.03514 0 9.57321C0 14.2322 2.48182 19.081 7.37727 23.9825C9.62052 26.219 12.0437 28.1961 14.6127 29.886C14.7318 29.9608 14.8648 30 15 30C15.1352 30 15.2682 29.9608 15.3873 29.886C17.9563 28.1961 20.3795 26.219 22.6227 23.9825C27.5182 19.081 30 14.2322 30 9.57321C29.9975 7.03514 29.1347 4.60188 27.6008 2.80719C26.067 1.01251 23.9874 0.00295591 21.8182 0ZM15 27.9394C12.7623 26.4284 1.63636 18.4635 1.63636 9.57321C1.63817 7.54268 2.32836 5.59592 3.55548 4.16012C4.7826 2.72431 6.44641 1.91675 8.18182 1.91464C10.9473 1.91464 13.2695 3.64261 14.2432 6.42522C14.3048 6.6008 14.4097 6.75098 14.5444 6.85667C14.6792 6.96236 14.8378 7.01879 15 7.01879C15.1622 7.01879 15.3208 6.96236 15.4556 6.85667C15.5903 6.75098 15.6952 6.6008 15.7568 6.42522C16.7305 3.64261 19.0527 1.91464 21.8182 1.91464C23.5536 1.91675 25.2174 2.72431 26.4445 4.16012C27.6716 5.59592 28.3618 7.54268 28.3636 9.57321C28.3636 18.4635 17.2377 26.4284 15 27.9394Z" fill="black"/>
</svg>
