<svg width="30" height="30" viewBox="0 0 30 30" fill="none" xmlns="http://www.w3.org/2000/svg">
<path id="Vector" d="M5.28571 12.7858H3.14286C2.57454 12.7858 2.02949 13.0115 1.62763 13.4134C1.22576 13.8153 1 14.3603 1 14.9286V18.1429C1 18.7112 1.22576 19.2563 1.62763 19.6581C2.02949 20.06 2.57454 20.2858 3.14286 20.2858H5.28571C5.56987 20.2858 5.8424 20.1729 6.04333 19.972C6.24426 19.771 6.35714 19.4985 6.35714 19.2143V13.8572C6.35714 13.573 6.24426 13.3005 6.04333 13.0996C5.8424 12.8986 5.56987 12.7858 5.28571 12.7858ZM5.28571 12.7858L5.28564 10.6429C5.28564 8.08541 6.30159 5.63271 8.10997 3.82433C9.91836 2.01594 12.3711 1 14.9285 1C17.4859 1 19.9386 2.01594 21.747 3.82433C23.5554 5.63271 24.5714 8.08541 24.5714 10.6429L24.5714 12.7858M24.5714 20.2858H26.7143C27.2826 20.2858 27.8276 20.06 28.2295 19.6581C28.6314 19.2563 28.8571 18.7112 28.8571 18.1429V14.9286C28.8571 14.3603 28.6314 13.8153 28.2295 13.4134C27.8276 13.0115 27.2826 12.7858 26.7143 12.7858H24.5714M24.5714 20.2858C24.2873 20.2858 24.0147 20.1729 23.8138 19.972C23.6129 19.771 23.5 19.4985 23.5 19.2143V13.8572C23.5 13.573 23.6129 13.3005 23.8138 13.0996C24.0147 12.8986 24.2873 12.7858 24.5714 12.7858M24.5714 20.2858V21.8929C24.5714 23.0296 24.1199 24.1196 23.3162 24.9234C22.5124 25.7271 21.4224 26.1786 20.2857 26.1786M20.2857 26.1786C20.2857 25.4682 20.0034 24.7869 19.5011 24.2845C18.9988 23.7822 18.3175 23.5 17.6071 23.5H14.3928C13.6824 23.5 13.0011 23.7822 12.4988 24.2845C11.9964 24.7869 11.7142 25.4682 11.7142 26.1786C11.7142 26.889 11.9964 27.5703 12.4988 28.0726C13.0011 28.5749 13.6824 28.8571 14.3928 28.8571H17.6071C18.3175 28.8571 18.9988 28.5749 19.5011 28.0726C20.0034 27.5703 20.2857 26.889 20.2857 26.1786ZM11.7142 8.5V11.7143M18.1428 8.5V11.7143M11.7142 16C11.7142 18.85 18.1428 18.85 18.1428 16" stroke="black" stroke-width="2" stroke-linecap="round" stroke-linejoin="round"/>
</svg>
