<svg width="30" height="30" viewBox="0 0 30 30" fill="none" xmlns="http://www.w3.org/2000/svg">
<path id="Vector" d="M18.8097 21.6957L18.8089 21.6964C18.4965 22.0089 18.325 22.3962 18.325 22.8375C18.325 23.2788 18.4965 23.6661 18.8089 23.9786L20.2714 25.4411C20.5839 25.7535 20.9712 25.925 21.4125 25.925C21.8528 25.925 22.2394 25.7542 22.5516 25.443C22.5522 25.4424 22.5529 25.4417 22.5536 25.4411L26.1874 21.8822L26.1874 21.8822L26.1911 21.8786C26.5081 21.5615 26.675 21.1661 26.675 20.718C26.675 20.2701 26.5082 19.8748 26.1907 19.5586C25.8737 19.2418 25.4784 19.075 25.0305 19.075C24.5832 19.075 24.1884 19.2414 23.8724 19.558C23.8718 19.5586 23.8712 19.5591 23.8707 19.5597L21.4149 21.9828L21.1286 21.6964C20.8119 21.3798 20.417 21.2125 19.9695 21.2125C19.522 21.2125 19.1271 21.3797 18.8097 21.6957ZM6 8.5L5.99882 8.5C5.70175 8.5007 5.47527 8.40567 5.28555 8.21595C5.09577 8.02617 5 7.79882 5 7.5L5 7.49882C4.9993 7.20175 5.09433 6.97528 5.28405 6.78556C5.47384 6.59577 5.70118 6.5 6 6.5L21 6.5L21.0012 6.5C21.2983 6.4993 21.5247 6.59433 21.7144 6.78406C21.9042 6.97384 22 7.20118 22 7.5L22 7.50118C22.0007 7.79825 21.9057 8.02472 21.7159 8.21445C21.5262 8.40423 21.2988 8.5 21 8.5L6 8.5ZM22.5002 29.5H22.5C20.5572 29.5 18.9155 28.8209 17.5466 27.4519C16.1776 26.083 15.4991 24.4419 15.5 22.5002V22.5C15.5 20.5572 16.1791 18.9155 17.5481 17.5466C18.917 16.1776 20.5581 15.4991 22.4998 15.5H22.5C24.4428 15.5 26.0845 16.1791 27.4534 17.5481C28.8224 18.917 29.5009 20.5581 29.5 22.4998V22.5C29.5 24.4428 28.8209 26.0845 27.4519 27.4534C26.083 28.8224 24.4419 29.5009 22.5002 29.5ZM3 24.575H11.6939C11.822 25.2294 11.9994 25.8591 12.2264 26.4634C12.2378 26.4936 12.2493 26.5237 12.2609 26.5538L12.1286 26.4214C11.8911 26.184 11.5913 26.05 11.25 26.05C10.9087 26.05 10.6089 26.184 10.3714 26.4214L9.17145 27.6214C9.1089 27.684 9.05873 27.7 9 27.7C8.94127 27.7 8.8911 27.684 8.82855 27.6214L7.62855 26.4214C7.3911 26.184 7.09128 26.05 6.75 26.05C6.40872 26.05 6.1089 26.184 5.87145 26.4214L4.67145 27.6214C4.6089 27.684 4.55872 27.7 4.5 27.7C4.44127 27.7 4.3911 27.684 4.32855 27.6214L3.12855 26.4214C2.8911 26.184 2.59128 26.05 2.25 26.05C1.90872 26.05 1.6089 26.184 1.37145 26.4214L0.5 27.2929V3C0.5 2.30879 0.740483 1.72913 1.23555 1.23406C1.73061 0.739004 2.30958 0.499165 2.99939 0.500003H3H24C24.6912 0.500003 25.2709 0.740486 25.7659 1.23556C26.261 1.73061 26.5008 2.30958 26.5 2.9994V3V12.2529C26.2308 12.148 25.9578 12.0541 25.6812 11.9711C25.2943 11.855 24.9005 11.7605 24.5 11.6873V3V2.5H24H3H2.5V3V24.075V24.575H3ZM27 3V12.462V3ZM6 20.5L5.99882 20.5C5.70175 20.5007 5.47528 20.4057 5.28555 20.2159C5.09577 20.0262 5 19.7988 5 19.5L5 19.4988C4.9993 19.2017 5.09433 18.9753 5.28405 18.7856C5.47384 18.5958 5.70118 18.5 6 18.5H12.2529C12.148 18.7692 12.0541 19.0422 11.9711 19.3188C11.855 19.7057 11.7605 20.0995 11.6873 20.5L6 20.5ZM6 14.5L5.99882 14.5C5.70175 14.5007 5.47528 14.4057 5.28555 14.2159C5.09577 14.0262 5 13.7988 5 13.5L5 13.4988C4.9993 13.2017 5.09433 12.9753 5.28405 12.7856C5.47384 12.5958 5.70118 12.5 6 12.5H17.926C16.8146 13.0151 15.8216 13.6817 14.9495 14.5L6 14.5Z" fill="black" stroke="black"/>
</svg>
