<svg width="30" height="30" viewBox="0 0 30 30" fill="none" xmlns="http://www.w3.org/2000/svg">
<g id="ph:handshake-light">
<path id="Vector" d="M13.8071 25.4826C13.7692 25.6348 13.6814 25.77 13.5579 25.8666C13.4343 25.9632 13.2819 26.0157 13.125 26.0158C13.0674 26.0156 13.0099 26.0086 12.954 25.9947L9.20395 25.0572C9.12599 25.0372 9.05191 25.0044 8.98481 24.9599L6.17231 23.0849C6.09536 23.0337 6.02926 22.9678 5.97779 22.891C5.92631 22.8142 5.89046 22.728 5.87229 22.6374C5.83558 22.4543 5.87311 22.2642 5.97661 22.1088C6.0801 21.9534 6.24109 21.8454 6.42416 21.8087C6.51481 21.7906 6.60814 21.7904 6.69884 21.8083C6.78955 21.8262 6.87583 21.8618 6.95278 21.913L9.66333 23.7201L13.2961 24.6283C13.3858 24.6507 13.4702 24.6907 13.5445 24.7458C13.6187 24.8009 13.6813 24.8701 13.7288 24.9495C13.7763 25.0288 13.8076 25.1167 13.821 25.2082C13.8345 25.2997 13.8297 25.3929 13.8071 25.4826ZM29.3614 14.1623C29.2941 14.3667 29.187 14.5557 29.0462 14.7184C28.9053 14.8812 28.7337 15.0144 28.5411 15.1103L25.7286 16.5166L19.2469 22.9982C19.115 23.1297 18.9363 23.2034 18.75 23.2033C18.6924 23.2032 18.6349 23.1961 18.5789 23.1822L11.079 21.3072C10.9947 21.2853 10.9152 21.2479 10.8446 21.197L4.32426 16.5423L1.46137 15.1103C1.0723 14.9157 0.776449 14.5745 0.63888 14.1618C0.501312 13.7491 0.533288 13.2987 0.727778 12.9095L3.63989 7.08648C3.8345 6.69741 4.17567 6.40156 4.58838 6.26399C5.00109 6.12642 5.45153 6.1584 5.84067 6.35289L8.50786 7.68648L14.8067 5.88648C14.9331 5.85034 15.067 5.85034 15.1934 5.88648L21.4922 7.68648L24.1594 6.35289C24.5486 6.1584 24.999 6.12642 25.4117 6.26399C25.8244 6.40156 26.1656 6.69741 26.3602 7.08648L29.2723 12.9095C29.3691 13.1021 29.4268 13.312 29.4421 13.527C29.4574 13.742 29.43 13.9579 29.3614 14.1623ZM2.09067 13.8529L4.37348 15.0002L7.50004 8.75172L5.21137 7.61031C5.15573 7.58268 5.0914 7.57827 5.03251 7.59805C4.97362 7.61782 4.92499 7.66017 4.89731 7.71578L1.9852 13.5388C1.95795 13.5943 1.95374 13.6584 1.97348 13.717C1.98264 13.7464 1.99777 13.7737 2.01793 13.7971C2.03809 13.8205 2.06285 13.8395 2.09067 13.8529ZM22.3829 17.8701L18.7817 14.9861C16.5551 16.9056 13.6747 17.1892 11.3051 15.6752C11.0978 15.5433 10.9228 15.3666 10.7929 15.1581C10.663 14.9495 10.5816 14.7145 10.5547 14.4703C10.5278 14.2261 10.5562 13.979 10.6376 13.7472C10.719 13.5154 10.8514 13.3048 11.025 13.131L16.3829 7.93258C16.4608 7.85742 16.555 7.80127 16.6582 7.76852L15 7.29391L8.92856 9.02359L5.5852 15.715L11.55 19.9748L18.5344 21.7209L22.3829 17.8701ZM24.4547 15.7982L21.1278 9.14078H17.1598L12.0141 14.133C11.9913 14.1569 11.9741 14.1856 11.9637 14.217C11.9534 14.2485 11.9502 14.2818 11.9543 14.3146C11.958 14.3504 11.9698 14.3849 11.9889 14.4154C12.008 14.4458 12.0339 14.4715 12.0645 14.4904C13.6219 15.4853 16.0653 15.7642 18.2508 13.5623C18.3731 13.4395 18.5365 13.3662 18.7095 13.3565C18.8825 13.3467 19.053 13.4012 19.1883 13.5095L23.386 16.8752L24.4547 15.7982ZM28.0125 13.5388L25.1028 7.71578C25.0751 7.66017 25.0265 7.61782 24.9676 7.59805C24.9087 7.57827 24.8444 7.58268 24.7887 7.61031L22.5059 8.75172L25.6266 15.0002L27.9094 13.8588C27.9372 13.8453 27.962 13.8264 27.9822 13.803C28.0023 13.7796 28.0174 13.7523 28.0266 13.7228C28.0372 13.6929 28.0416 13.6612 28.0396 13.6296C28.0376 13.598 28.0292 13.5671 28.0149 13.5388H28.0125Z" fill="black"/>
</g>
</svg>
