<svg width="30" height="30" viewBox="0 0 30 30" fill="none" xmlns="http://www.w3.org/2000/svg">
<path id="Vector" d="M3.33148 2.83333H2.83148V3.33333V10V10.5H3.33148H9.99445H10.4944V10V3.33333V2.83333H9.99445H3.33148ZM3.33148 19.5H2.83148V20V26.6667V27.1667H3.33148H9.99445H10.4944V26.6667V20V19.5H9.99445H3.33148ZM26.6519 10.5H27.1519V10V3.33333V2.83333H26.6519H19.9889H19.4889V3.33333V10V10.5H19.9889H26.6519ZM22.837 27.1667V29.5H20.5056V27.1667H22.837ZM19.5056 26.1667H17.1741V23.8333H19.5056V26.1667ZM20.5056 22.8333V20.5H22.837V22.8333H20.5056ZM19.5056 19.5H17.1741V17.1667H19.5056V19.5ZM27.1685 27.1667H29.5V29.5H27.1685V27.1667ZM26.1685 26.1667H23.837V23.8333H26.1685V26.1667ZM23.837 19.5V17.1667H26.1685V19.5H23.837ZM29.5 22.8333H27.1685V20.5H29.5V22.8333ZM12.8259 12.8333H0.5V0.5H12.8259V12.8333ZM12.8259 17.1667V29.5H0.5V17.1667H12.8259ZM29.4833 12.8333H17.1574V0.5H29.4833V12.8333Z" stroke="black"/>
</svg>
