<svg width="21" height="20" viewBox="0 0 21 20" fill="none" xmlns="http://www.w3.org/2000/svg">
<path fill-rule="evenodd" clip-rule="evenodd" d="M0.899902 10.0001C0.899902 4.48012 5.3699 0.00012207 10.8999 0.00012207C16.4199 0.00012207 20.8999 4.48012 20.8999 10.0001C20.8999 15.5301 16.4199 20.0001 10.8999 20.0001C5.3699 20.0001 0.899902 15.5301 0.899902 10.0001ZM13.1299 11.8301L14.7499 6.71012C14.8599 6.36012 14.5399 6.03012 14.1899 6.14012L9.0699 7.74012C8.8599 7.81012 8.6899 7.97012 8.6299 8.18012L7.0299 13.3101C6.9199 13.6501 7.2499 13.9801 7.5899 13.8701L12.6899 12.2701C12.8999 12.2101 13.0699 12.0401 13.1299 11.8301Z" fill="#5D646E"/>
</svg>
