<svg width="21" height="20" viewBox="0 0 21 20" fill="none" xmlns="http://www.w3.org/2000/svg">
<path fill-rule="evenodd" clip-rule="evenodd" d="M5.1001 0C2.33867 0 0.100098 2.23858 0.100098 5V15C0.100098 17.7614 2.33867 20 5.1001 20H15.1001C17.8615 20 20.1001 17.7614 20.1001 15V5C20.1001 2.23858 17.8615 0 15.1001 0H5.1001ZM2.32232 5.22219C2.32232 3.56534 3.66547 2.22219 5.32232 2.22219H14.8779C16.5347 2.22219 17.8779 3.56534 17.8779 5.22219V10.3333C17.8779 11.9902 16.5347 13.3333 14.8779 13.3333H13.4334V13.3334C13.4334 15.1743 11.9411 16.6667 10.1001 16.6667C8.25916 16.6667 6.76677 15.1743 6.76677 13.3334V13.3333H5.32233C3.66547 13.3333 2.32232 11.9902 2.32232 10.3333V5.22219Z" fill="#5D646E"/>
</svg>
